<svg width="18" height="20" viewBox="0 0 18 20" fill="none" xmlns="http://www.w3.org/2000/svg">
<rect x="6" y="1" width="6" height="11" rx="3" stroke="#191919" stroke-width="2" stroke-linejoin="round"/>
<path d="M4 12V13C4 14.1046 4.89543 15 6 15H12C13.1046 15 14 14.1046 14 13V12" stroke="#191919" stroke-width="2" stroke-linejoin="round"/>
<path d="M9 15L9 19" stroke="#191919" stroke-width="2" stroke-linejoin="round"/>
<path d="M13 19H5" stroke="#191919" stroke-width="2" stroke-linejoin="round"/>
<path d="M9 5L12 5" stroke="#191919" stroke-width="2" stroke-linejoin="round"/>
<path d="M9 8L12 8" stroke="#191919" stroke-width="2" stroke-linejoin="round"/>
<path d="M2.67363 4C2.24169 4.90926 2 5.9264 2 7C2 8.0736 2.24169 9.09074 2.67363 10M15.3264 4C15.7583 4.90926 16 5.9264 16 7C16 8.0736 15.7583 9.09074 15.3264 10" stroke="#191919" stroke-width="2" stroke-linejoin="round"/>
</svg>
