<svg width="1120" height="354" viewBox="0 0 1120 354" fill="none" xmlns="http://www.w3.org/2000/svg">
<path d="M873.632 231.87C872.297 231.87 871.206 230.81 871.206 229.484V211.8C871.206 210.513 872.297 209.414 873.632 209.414H891.583C892.917 209.414 894.009 210.513 894.009 211.8V229.484C894.009 230.81 892.917 231.87 891.583 231.87H873.632Z" fill="#01B9B4"/>
<path d="M911.586 212.33C907.353 203.015 907.03 190.972 907.03 175.749C907.03 160.488 907.353 148.484 911.586 139.168C917.288 126.672 929.341 118 946.927 118C968.588 118 985.689 131.633 985.689 154.581C985.689 156.323 984.225 157.762 982.433 157.762H965.824C964.028 157.762 962.237 156.323 962.237 154.581C962.237 146.212 956.212 140.607 946.927 140.607C939.603 140.607 934.878 143.182 932.598 148.143C930.483 152.801 930.318 165.487 930.318 175.749C930.318 186.012 930.483 198.66 932.598 203.318C934.878 208.316 939.603 210.853 946.927 210.853C956.212 210.853 962.237 205.249 962.237 196.918C962.237 195.138 964.028 193.699 965.824 193.699H982.433C984.225 193.699 985.689 195.138 985.689 196.918C985.689 219.525 968.915 233.499 946.927 233.499C929.341 233.499 917.288 224.827 911.586 212.33Z" fill="#01B9B4"/>
<path d="M1001.97 231.87C1000.18 231.87 998.712 230.431 998.712 228.689V122.81C998.712 121.03 1000.18 119.59 1001.97 119.59H1018.25C1020.05 119.59 1021.51 121.03 1021.51 122.81V162.912C1021.51 163.859 1022.16 164.503 1023.14 164.503H1047.57C1048.55 164.503 1049.19 163.859 1049.19 162.912V122.81C1049.19 121.03 1050.66 119.59 1052.46 119.59H1068.74C1070.54 119.59 1072 121.03 1072 122.81V228.689C1072 230.431 1070.54 231.87 1068.74 231.87H1052.46C1050.66 231.87 1049.19 230.431 1049.19 228.689V188.587C1049.19 187.602 1048.55 186.958 1047.57 186.958H1023.14C1022.16 186.958 1021.51 187.602 1021.51 188.587V228.689C1021.51 230.431 1019.23 231.87 1017.44 231.87H1001.97Z" fill="#01B9B4"/>
<path d="M48 200.136V196.918C48 195.138 49.461 193.699 51.2526 193.699H68.5193C70.3071 193.699 71.7719 195.138 71.7719 196.918V200.136C71.7719 207.975 78.1273 213.125 87.5699 213.125C97.3432 213.125 103.695 208.619 103.695 201.727C103.695 194.191 100.761 190.48 79.7536 185.027C59.2343 179.763 50.6029 167.873 50.6029 151.021C50.6029 133.375 65.259 119.59 88.3888 119.59C111.511 119.59 125.029 133.564 125.029 153.293V154.089C125.029 155.869 123.564 157.308 121.773 157.308H105.325C103.533 157.308 102.065 155.869 102.065 154.089V153.293C102.065 146.212 96.3666 141.403 88.3888 141.403C79.2653 141.403 74.2172 145.114 74.2172 151.854C74.2172 157.61 78.2887 161.473 97.1817 166.282C119.004 171.887 127.309 182.944 127.309 200.136C127.309 221.305 111.511 235.089 87.5699 235.089C64.1209 235.089 48 220.964 48 200.136Z" fill="#005271"/>
<path d="M182.673 188.587C183.65 188.587 184.138 187.943 183.976 186.807L176.322 150.226C176.16 149.279 175.995 148.787 175.507 148.787H174.857C174.365 148.787 174.203 149.279 174.042 150.226L166.387 186.807C166.225 187.943 166.714 188.587 167.69 188.587H182.673ZM135.444 233.499C133.326 233.499 132.188 232.514 132.188 231.075C132.188 230.28 132.349 229.636 132.838 227.856L161.339 123.604C161.827 122.014 162.965 121.219 164.434 121.219H186.256C187.721 121.219 188.859 122.014 189.351 123.604L217.687 227.856C218.179 229.636 218.341 230.28 218.341 231.075C218.341 232.514 217.199 233.499 215.08 233.499H197.983C196.514 233.499 195.376 232.703 194.888 231.075L189.84 213.428C189.351 211.989 188.859 211.042 187.394 211.042H162.642C161.177 211.042 160.689 211.838 160.197 213.428L155.641 231.075C155.149 232.703 154.011 233.499 152.542 233.499H135.444Z" fill="#005271"/>
<path d="M234.619 233.499C232.823 233.499 231.358 232.06 231.358 230.28V124.4C231.358 122.658 232.823 121.219 234.619 121.219H253.996C256.441 121.219 257.579 122.658 258.068 124.097L280.382 189.836C280.705 190.821 281.847 190.48 281.847 189.533V124.4C281.847 122.658 283.312 121.219 285.104 121.219H301.39C303.182 121.219 304.647 122.658 304.647 124.4V230.28C304.647 232.06 303.182 233.499 301.39 233.499H282.17C279.402 233.499 278.26 232.06 277.776 230.772L255.626 169.653C255.299 168.668 254.161 169.009 254.161 169.955V230.28C254.161 232.06 252.693 233.499 250.901 233.499H234.619Z" fill="#005271"/>
<path d="M346.17 233.499C344.374 233.499 342.91 232.06 342.91 230.28V145.265C342.91 144.318 342.26 143.675 341.283 143.675H320.925C319.134 143.675 317.669 142.198 317.669 140.456V124.4C317.669 122.658 319.134 121.219 320.925 121.219H387.697C389.488 121.219 390.953 122.658 390.953 124.4V140.456C390.953 142.198 389.488 143.675 387.697 143.675H367.343C366.362 143.675 365.713 144.318 365.713 145.265V230.28C365.713 232.06 364.244 233.499 362.452 233.499H346.17Z" fill="#005271"/>
<path d="M407.232 233.499C405.437 233.499 403.972 232.06 403.972 230.28V124.4C403.972 122.658 405.437 121.219 407.232 121.219H467.029C468.824 121.219 470.289 122.658 470.289 124.4V140.456C470.289 142.198 468.824 143.675 467.029 143.675H428.405C427.425 143.675 426.775 144.318 426.775 145.265V164.502C426.775 165.487 427.425 166.131 428.405 166.131H465.049C466.841 166.131 468.305 167.569 468.305 169.311V185.368C468.305 187.147 466.841 188.587 465.049 188.587H428.405C427.425 188.587 426.775 189.23 426.775 190.177V209.414C426.775 210.399 427.425 211.042 428.405 211.042H467.002C468.794 211.042 470.259 212.482 470.259 214.224V230.28C470.259 232.06 468.794 233.499 467.002 233.499H407.232Z" fill="#005271"/>
<path d="M524.849 166.131C531.524 166.131 536.249 161.473 536.249 154.884C536.249 148.295 531.524 143.675 524.849 143.675H511.005C510.028 143.675 509.374 144.318 509.374 145.265V164.502C509.374 165.487 510.028 166.131 511.005 166.131H524.849ZM489.832 233.499C488.04 233.499 486.575 232.06 486.575 230.28V124.4C486.575 122.658 488.04 121.219 489.832 121.219H525.661C546.018 121.219 559.863 134.851 559.863 154.884C559.863 174.954 546.18 188.587 525.661 188.587H511.005C510.028 188.587 509.374 189.23 509.374 190.177V230.28C509.374 232.06 507.91 233.499 506.118 233.499H489.832Z" fill="#005271"/>
<path d="M567.534 200.136V196.918C567.534 195.138 568.999 193.699 570.79 193.699H588.053C589.845 193.699 591.309 195.138 591.309 196.918V200.136C591.309 207.975 597.661 213.125 607.107 213.125C616.877 213.125 623.228 208.619 623.228 201.727C623.228 194.191 620.299 190.48 599.291 185.027C578.768 179.763 570.137 167.873 570.137 151.021C570.137 133.375 584.797 119.59 607.923 119.59C631.045 119.59 644.567 133.564 644.567 153.293V154.089C644.567 155.869 643.098 157.308 641.306 157.308H624.859C623.067 157.308 621.598 155.869 621.598 154.089V153.293C621.598 146.212 615.9 141.403 607.923 141.403C598.803 141.403 593.755 145.114 593.755 151.854C593.755 157.61 597.826 161.473 616.715 166.282C638.538 171.887 646.843 182.944 646.843 200.136C646.843 221.305 631.045 235.089 607.107 235.089C583.655 235.089 567.534 220.964 567.534 200.136Z" fill="#005271"/>
<path d="M683.31 233.499C681.518 233.499 680.053 232.06 680.053 230.28V193.547L651.714 126.975C650.899 125.195 650.737 124.4 650.737 123.453C650.737 122.317 651.391 121.219 653.344 121.219H671.745C673.214 121.219 674.19 121.825 674.844 123.604L690.315 163.707C690.638 164.654 690.961 165.146 691.453 165.146C691.941 165.146 692.264 164.654 692.591 163.707L708.062 123.604C708.716 121.825 709.692 121.219 711.161 121.219H729.562C731.515 121.219 732.169 122.317 732.169 123.453C732.169 124.4 732.007 125.195 731.188 126.975L702.853 193.547V230.28C702.853 232.06 701.384 233.499 699.596 233.499H683.31Z" fill="#005271"/>
</svg>
